<svg width="57" height="54" viewBox="0 0 57 54" fill="none" xmlns="http://www.w3.org/2000/svg">
<path fill-rule="evenodd" clip-rule="evenodd" d="M42.7502 26.2054H29.2958C29.2958 27.6046 29.2958 30.403 29.2872 31.8023H37.0837C36.7849 33.2015 35.7257 35.1604 34.229 36.1468C34.2275 36.1454 34.2261 36.1552 34.2233 36.1538C32.2334 37.4677 29.6074 37.7657 27.6576 37.3739C24.6014 36.7667 22.1827 34.5503 21.2006 31.7351C21.2063 31.7309 21.2106 31.6917 21.2149 31.6889C20.6002 29.9427 20.6002 27.6046 21.2149 26.2054H21.2135C22.0054 23.6337 24.497 21.2872 27.5576 20.6449C30.0191 20.123 32.7966 20.6883 34.8394 22.5996C35.111 22.3338 38.5989 18.9281 38.8605 18.6511C31.8818 12.3308 20.7075 14.5542 16.5262 22.7158H16.5248C16.5248 22.7158 16.5262 22.7158 16.5176 22.7312C14.4492 26.7399 14.5349 31.4637 16.5319 35.2807C16.5262 35.2849 16.5219 35.2877 16.5176 35.2919C18.3274 38.8039 21.6209 41.4974 25.5892 42.523C29.8047 43.6284 35.1696 42.8728 38.7633 39.6225C38.7647 39.6239 38.7662 39.6253 38.7676 39.6267C41.8124 36.8842 43.7079 32.2122 42.7502 26.2054Z" fill="#1064E5"/>
</svg>
