<svg width="131" height="40" viewBox="0 0 131 40" fill="none" xmlns="http://www.w3.org/2000/svg">
<path d="M72.0167 6.56396C72.7816 6.56396 73.4092 6.79932 73.8995 7.27002C74.3899 7.72111 74.635 8.30949 74.635 9.03516C74.635 9.76083 74.3899 10.359 73.8995 10.8297C73.4092 11.3004 72.7816 11.5358 72.0167 11.5358C71.2714 11.5358 70.6438 11.3004 70.1339 10.8297C69.6436 10.359 69.3984 9.76083 69.3984 9.03516C69.3984 8.3291 69.6436 7.74072 70.1339 7.27002C70.6438 6.79932 71.2714 6.56396 72.0167 6.56396ZM69.8986 30.2168V14.0364H74.1055V30.2168H69.8986Z" fill="white"/>
<path d="M88.4795 14.0361H92.6864V30.0106C92.6864 32.4034 91.9607 34.3156 90.5094 35.7473C89.0581 37.1987 87.1164 37.9243 84.6845 37.9243C82.5859 37.9243 80.7619 37.3948 79.2125 36.3357C77.6827 35.2766 76.7708 33.737 76.4766 31.7169H80.8306C81.262 33.3644 82.5075 34.1881 84.5668 34.1881C87.1753 34.1881 88.4795 32.8349 88.4795 30.1283V27.8042C87.2243 29.4909 85.5278 30.3342 83.39 30.3342C81.2719 30.3342 79.5067 29.5497 78.0946 27.9807C76.7021 26.4117 76.0059 24.421 76.0059 22.0087C76.0059 19.5963 76.7119 17.6056 78.124 16.0366C79.5361 14.4676 81.2915 13.6831 83.39 13.6831C85.5474 13.6831 87.2439 14.5461 88.4795 16.272V14.0361ZM84.3314 26.3333C85.5278 26.3333 86.5182 25.9312 87.3027 25.1271C88.0873 24.323 88.4795 23.2835 88.4795 22.0087C88.4795 20.7535 88.0774 19.7238 87.2733 18.9197C86.4888 18.096 85.5082 17.6841 84.3314 17.6841C83.1547 17.6841 82.174 18.096 81.3895 18.9197C80.6246 19.7238 80.2422 20.7535 80.2422 22.0087C80.2422 23.2639 80.6246 24.3034 81.3895 25.1271C82.174 25.9312 83.1547 26.3333 84.3314 26.3333Z" fill="white"/>
<path d="M59.2804 22.0253C57.7702 21.7115 56.5542 21.3977 55.6324 21.0839C54.7106 20.77 53.8673 20.368 53.1024 19.8777C52.3375 19.407 51.7982 18.8186 51.4844 18.1125C51.1509 17.4065 50.9842 16.5533 50.9842 15.5531C50.9842 14.4156 51.2294 13.4055 51.7197 12.5229C52.1904 11.66 52.8278 10.9931 53.6319 10.5224C54.4165 10.0517 55.25 9.69871 56.1326 9.46336C56.9955 9.22801 57.8879 9.11033 58.8097 9.11033C61.6143 9.11033 63.7521 9.76735 65.223 11.0814C66.6744 12.4151 67.5275 14.0821 67.7825 16.0826L63.5461 16.0826C63.2519 15.0235 62.7518 14.2488 62.0458 13.7585C61.3201 13.2682 60.2512 13.0231 58.8391 13.0231C57.6623 13.0231 56.77 13.229 56.162 13.6409C55.5344 14.0527 55.2206 14.6313 55.2206 15.3766C55.2206 15.8473 55.3971 16.2199 55.7501 16.4945C56.0835 16.7887 56.4954 17.0044 56.9857 17.1417C57.476 17.279 58.3488 17.4849 59.604 17.7595C59.7021 17.7791 59.7805 17.7889 59.8393 17.7889C59.8786 17.8085 59.9472 17.8282 60.0453 17.8478C60.1237 17.8674 60.2022 17.887 60.2806 17.9066C61.3397 18.1223 62.2321 18.3577 62.9578 18.6127C63.6834 18.8676 64.3993 19.2207 65.1053 19.6717C65.8114 20.1228 66.3507 20.7014 66.7234 21.4075C67.0764 22.1135 67.2529 22.9569 67.2529 23.9375C67.2529 25.9772 66.488 27.5658 64.9582 28.7034C63.4285 29.8409 61.6045 30.4097 59.4863 30.4097C56.8974 30.4097 54.9362 29.8115 53.6025 28.6151C52.2493 27.4384 51.4451 25.9086 51.1902 24.0258L55.4559 24.0258C55.9658 25.6732 57.2995 26.4969 59.4569 26.4969C60.6533 26.4969 61.5456 26.2714 62.134 25.8203C62.7224 25.3888 63.0166 24.8201 63.0166 24.114C63.0166 23.5452 62.7714 23.1334 62.2811 22.8784C61.7712 22.6234 60.7709 22.3391 59.2804 22.0253Z" fill="white"/>
<path fill-rule="evenodd" clip-rule="evenodd" d="M111.324 15.3313C110.284 14.1938 108.852 13.625 107.028 13.625C104.953 13.625 103.312 14.4291 102.105 16.0372V14.0293H101.998V13.978H97.7908V14.0293H94.6343V17.7648H97.7908V30.1585H101.998V21.6564C101.998 18.9694 103.214 17.626 105.646 17.626C106.724 17.626 107.499 17.9006 107.97 18.4497C108.44 18.9989 108.676 19.8226 108.676 20.9209V30.1585H112.883V20.0089C112.883 18.028 112.363 16.4688 111.324 15.3313Z" fill="white"/>
<path fill-rule="evenodd" clip-rule="evenodd" d="M130.217 14.0361H126.01V22.5382C126.01 23.8523 125.696 24.8525 125.068 25.5389C124.46 26.2254 123.578 26.5686 122.421 26.5686C121.362 26.5686 120.597 26.294 120.126 25.7449C119.675 25.1957 119.449 24.372 119.449 23.2737V14.0361H115.242V24.1857C115.242 26.1469 115.752 27.7061 116.772 28.8633C117.812 30.0008 119.224 30.5696 121.009 30.5696C123.107 30.5696 124.774 29.7066 126.01 27.9807V30.2166H126.01V30.6243C126.01 31.8426 125.728 32.7254 125.17 33.3042C124.613 33.8819 123.766 34.1851 122.596 34.1851C121.671 34.1851 120.948 34 120.412 33.6455C119.879 33.2932 119.516 32.7632 119.327 32.0406L119.294 31.9164H114.976L115.004 32.1068C115.28 34.0021 116.139 35.4587 117.586 36.46L117.586 36.4605C119.04 37.454 120.748 37.948 122.704 37.948C124.972 37.948 126.8 37.2701 128.169 35.901C129.538 34.5499 130.217 32.7489 130.217 30.5163V30.2166H130.217V14.0361Z" fill="white"/>
<rect width="40" height="40" rx="9.92226" fill="#1064E5"/>
<path fill-rule="evenodd" clip-rule="evenodd" d="M31.0669 31.479C28.2427 34.0679 24.6634 35.3624 20.329 35.3624C15.7396 35.3624 11.974 33.9306 9.0321 31.0672C6.10982 28.2233 4.64867 24.5166 4.64867 19.9468C4.64867 15.3967 6.07059 11.7095 8.91442 8.88527C11.7779 6.06105 15.465 4.64894 19.976 4.64894C22.2902 4.64894 24.379 5.0412 26.2422 5.8257L25.5067 9.26772C23.9377 8.54206 22.1333 8.17922 20.0936 8.17922C16.6222 8.17922 13.8078 9.2285 11.6504 11.3271C9.51261 13.4256 8.44372 16.3087 8.44372 19.9762C8.44372 23.6242 9.54203 26.5072 11.7386 28.6254C13.9549 30.7632 16.8477 31.8321 20.4172 31.8321C21.9863 31.8321 23.418 31.6065 24.7124 31.1554C26.0265 30.724 27.1934 30.0571 28.2133 29.1549C29.2527 28.2724 30.0569 27.0858 30.6256 25.5953C30.9249 24.837 31.1481 24.0179 31.2951 23.138C31.4739 21.4493 31.5845 19.7435 31.2917 18.4199C31.1343 17.7086 30.8953 17.2879 30.6456 17.0476C30.4332 16.8433 30.0594 16.6179 29.2661 16.6024C27.8585 16.5749 26.289 17.4675 24.6889 19.1422C23.1381 20.7653 21.8323 22.8287 21.0314 24.3822C20.7196 24.987 20.5041 25.4851 20.5041 25.4851L20.4214 25.4016L20.4211 25.4021L14.0418 18.9835L16.7419 16.2833L19.7286 19.2047C20.3774 18.2843 21.1146 17.3555 21.928 16.5042C23.7641 14.5825 26.3069 12.7254 29.3406 12.7845C30.9308 12.8156 32.2779 13.319 33.2932 14.296C34.2713 15.237 34.7668 16.45 35.0201 17.595C35.2197 18.4973 35.2901 19.4665 35.2898 20.4175H35.3032V20.9176C35.3032 22.0604 35.2102 23.1418 35.0241 24.1618L35.019 24.2066L35.016 24.2063C34.472 27.1401 33.1557 29.5644 31.0669 31.479Z" fill="white"/>
</svg>
