<svg width="24" height="24" viewBox="0 0 24 24" fill="none" xmlns="http://www.w3.org/2000/svg">
<path d="M12 1C7.57714 1 4 4.57714 4 9C4 15 12 23.8571 12 23.8571C12 23.8571 20 15 20 9C20 4.57714 16.4229 1 12 1ZM12 11.8571C11.2422 11.8571 10.5155 11.5561 9.9797 11.0203C9.44388 10.4845 9.14286 9.75776 9.14286 9C9.14286 8.24224 9.44388 7.51551 9.9797 6.9797C10.5155 6.44388 11.2422 6.14286 12 6.14286C12.7578 6.14286 13.4845 6.44388 14.0203 6.9797C14.5561 7.51551 14.8571 8.24224 14.8571 9C14.8571 9.75776 14.5561 10.4845 14.0203 11.0203C13.4845 11.5561 12.7578 11.8571 12 11.8571Z" fill="#1064E5"/>
</svg>
