<svg width="57" height="54" viewBox="0 0 57 54" fill="none" xmlns="http://www.w3.org/2000/svg">
<path fill-rule="evenodd" clip-rule="evenodd" d="M45 43H38.8462V31.7934C38.8462 28.7192 37.5431 27.0044 35.2062 27.0044C32.6631 27.0044 31.1538 28.7913 31.1538 31.7934V43H25V22.1849H31.1538V24.5258C31.1538 24.5258 33.0846 21 37.4354 21C41.7877 21 45 23.7636 45 29.483C45 35.2007 45 43 45 43ZM16.0006 17C14.343 17 13 15.6564 13 13.9994C13 12.3436 14.343 11 16.0006 11C17.657 11 19 12.3436 19 13.9994C19.0012 15.6564 17.657 17 16.0006 17ZM13 43H19V23H13V43Z" fill="#1064E5"/>
</svg>
